name rise49.8558peak67.6521fall70.3087.mot
datacolumns 19
datarows 12
range 7.16163700000000 7.17997700000000
endheader
time	ground_force1_vx	ground_force1_vy	ground_force1_vz	ground_force1_px	ground_force1_py	ground_force1_pz	ground_force2_vx	ground_force2_vy	ground_force2_vz	ground_force2_px	ground_force2_py	ground_force2_pz	ground_torque1_x	ground_torque1_y	ground_torque1_z	ground_torque2_x	ground_torque2_y	ground_torque2_z	
7.16163700000000	2.97132300000000	718.00273000000004	47.59477900000000	0.25526100000000	0.00000000000000	0.12214800000000	0.00000000000000	0.00000000000000	0.00000000000000	0.00000000000000	0.00000000000000	0.00000000000000	0.00000000000000	22.28210100000000	0.00000000000000	0.00000000000000	0.00000000000000	0.00000000000000	
7.16330700000000	2.74994000000000	718.37823300000002	47.67143000000000	0.25452900000000	0.00000000000000	0.12214200000000	0.00000000000000	0.00000000000000	0.00000000000000	0.00000000000000	0.00000000000000	0.00000000000000	0.00000000000000	22.32048000000000	0.00000000000000	0.00000000000000	0.00000000000000	0.00000000000000	
7.16497200000000	2.52164900000000	718.76641099999995	47.75293800000000	0.25382100000000	0.00000000000000	0.12213400000000	0.00000000000000	0.00000000000000	0.00000000000000	0.00000000000000	0.00000000000000	0.00000000000000	0.00000000000000	22.36527400000000	0.00000000000000	0.00000000000000	0.00000000000000	0.00000000000000	
7.16664100000000	2.28604100000000	719.16596800000002	47.83882900000000	0.25313700000000	0.00000000000000	0.12212400000000	0.00000000000000	0.00000000000000	0.00000000000000	0.00000000000000	0.00000000000000	0.00000000000000	0.00000000000000	22.41625900000000	0.00000000000000	0.00000000000000	0.00000000000000	0.00000000000000	
7.16830600000000	2.04273600000000	719.57567700000004	47.92864600000000	0.25247700000000	0.00000000000000	0.12211300000000	0.00000000000000	0.00000000000000	0.00000000000000	0.00000000000000	0.00000000000000	0.00000000000000	0.00000000000000	22.47320900000000	0.00000000000000	0.00000000000000	0.00000000000000	0.00000000000000	
7.16996900000000	1.79138600000000	719.99437699999999	48.02194700000000	0.25183800000000	0.00000000000000	0.12210000000000	0.00000000000000	0.00000000000000	0.00000000000000	0.00000000000000	0.00000000000000	0.00000000000000	0.00000000000000	22.53589800000000	0.00000000000000	0.00000000000000	0.00000000000000	0.00000000000000	
7.17163800000000	1.53167200000000	720.42097899999999	48.11830800000000	0.25121900000000	0.00000000000000	0.12208400000000	0.00000000000000	0.00000000000000	0.00000000000000	0.00000000000000	0.00000000000000	0.00000000000000	0.00000000000000	22.60409800000000	0.00000000000000	0.00000000000000	0.00000000000000	0.00000000000000	
7.17330500000000	1.26330500000000	720.85447299999998	48.21732200000000	0.25061800000000	0.00000000000000	0.12206700000000	0.00000000000000	0.00000000000000	0.00000000000000	0.00000000000000	0.00000000000000	0.00000000000000	0.00000000000000	22.67758000000000	0.00000000000000	0.00000000000000	0.00000000000000	0.00000000000000	
7.17497000000000	0.98602800000000	721.29392399999995	48.31860300000000	0.25003500000000	0.00000000000000	0.12204800000000	0.00000000000000	0.00000000000000	0.00000000000000	0.00000000000000	0.00000000000000	0.00000000000000	0.00000000000000	22.75611900000000	0.00000000000000	0.00000000000000	0.00000000000000	0.00000000000000	
7.17663800000000	0.69961800000000	721.73848199999998	48.42178400000000	0.24946700000000	0.00000000000000	0.12202700000000	0.00000000000000	0.00000000000000	0.00000000000000	0.00000000000000	0.00000000000000	0.00000000000000	0.00000000000000	22.83948600000000	0.00000000000000	0.00000000000000	0.00000000000000	0.00000000000000	
7.17830700000000	0.40387900000000	722.18737799999997	48.52651900000000	0.24891200000000	0.00000000000000	0.12200400000000	0.00000000000000	0.00000000000000	0.00000000000000	0.00000000000000	0.00000000000000	0.00000000000000	0.00000000000000	22.92745800000000	0.00000000000000	0.00000000000000	0.00000000000000	0.00000000000000	
7.17997700000000	0.09864900000000	722.63992800000005	48.63248100000000	0.24837100000000	0.00000000000000	0.12197900000000	0.00000000000000	0.00000000000000	0.00000000000000	0.00000000000000	0.00000000000000	0.00000000000000	0.00000000000000	23.01980900000000	0.00000000000000	0.00000000000000	0.00000000000000	0.00000000000000	
